Table "UserMaster" {
  "UserMasterKey" "BIGINT IDENTITY(1,1)" [not null]
}

Table "CodeDef" {
  "CdKey" "BIGINT IDENTITY(1,1)" [not null]
  "Category" NVARCHAR(50) [not null]
  "Description" NVARCHAR(100)
  "Code" NVARCHAR(50) [not null]
  "ParentCdKey" BIGINT
  "UserMasterKeyAddedBy" BIGINT [not null]
  "UserMasterKeyLastEditedBy" BIGINT
  "AddedDtTm" DATETIMEOFFSET(7) [not null]
  "LastEditedDtTm" DATETIMEOFFSET(7)
  "EffectiveFromDtTm" DATETIMEOFFSET(7) [not null]
  "EffectiveThruDtTm" DATETIMEOFFSET(7)

  Indexes {
    CdKey [pk, name: "PK__CodeDef__4922449ECDD244C3"]
  }
}

Ref "fk__CodeDef__ParentCdKey__CodeDef__CdKey":"CodeDef"."CdKey" < "CodeDef"."ParentCdKey"

Ref "fk__CodeDef__UserMasterKeyLastEditedBy__UserMaster_UserMasterKey":"UserMaster"."UserMasterKey" < "CodeDef"."UserMasterKeyLastEditedBy"
